<mxfile host="app.diagrams.net" modified="2023-11-16T13:17:14.319Z" agent="Mozilla/5.0 (Windows NT 10.0; Win64; x64) AppleWebKit/537.36 (KHTML, like Gecko) Chrome/119.0.0.0 Safari/537.36" etag="mcfxfNCdLlWV_qDycNAS" version="22.1.2" type="device">
  <diagram name="Page-1" id="Gg3qNfm77DJShoeNP4SD">
    <mxGraphModel dx="1050" dy="530" grid="0" gridSize="10" guides="1" tooltips="1" connect="1" arrows="1" fold="1" page="1" pageScale="1" pageWidth="850" pageHeight="1100" background="#ffffff" math="0" shadow="0">
      <root>
        <mxCell id="0" />
        <mxCell id="1" parent="0" />
        <mxCell id="FLa_jBm4KzPVLaS_Qj85-1" value="Mess_caretaker" style="shape=umlActor;verticalLabelPosition=bottom;verticalAlign=top;html=1;outlineConnect=0;" parent="1" vertex="1">
          <mxGeometry x="625" y="157" width="30" height="60" as="geometry" />
        </mxCell>
        <mxCell id="FLa_jBm4KzPVLaS_Qj85-9" value="view_menu" style="ellipse;whiteSpace=wrap;html=1;" parent="1" vertex="1">
          <mxGeometry x="771.5" y="125.5" width="100" height="31.5" as="geometry" />
        </mxCell>
        <mxCell id="FLa_jBm4KzPVLaS_Qj85-10" value="update_menu" style="ellipse;whiteSpace=wrap;html=1;" parent="1" vertex="1">
          <mxGeometry x="957" y="128" width="89" height="29" as="geometry" />
        </mxCell>
        <mxCell id="FLa_jBm4KzPVLaS_Qj85-11" value="create_vacation_food_request" style="ellipse;whiteSpace=wrap;html=1;" parent="1" vertex="1">
          <mxGeometry x="732" y="171" width="179" height="43" as="geometry" />
        </mxCell>
        <mxCell id="FLa_jBm4KzPVLaS_Qj85-12" value="respond_rebate_request" style="ellipse;whiteSpace=wrap;html=1;" parent="1" vertex="1">
          <mxGeometry x="763" y="220" width="145" height="41" as="geometry" />
        </mxCell>
        <mxCell id="FLa_jBm4KzPVLaS_Qj85-13" value="manage_registration" style="ellipse;whiteSpace=wrap;html=1;" parent="1" vertex="1">
          <mxGeometry x="763" y="76.5" width="128" height="36" as="geometry" />
        </mxCell>
        <mxCell id="FLa_jBm4KzPVLaS_Qj85-15" value="" style="endArrow=none;html=1;rounded=0;" parent="1" source="FLa_jBm4KzPVLaS_Qj85-1" target="FLa_jBm4KzPVLaS_Qj85-9" edge="1">
          <mxGeometry width="50" height="50" relative="1" as="geometry">
            <mxPoint x="400" y="330" as="sourcePoint" />
            <mxPoint x="450" y="280" as="targetPoint" />
          </mxGeometry>
        </mxCell>
        <mxCell id="FLa_jBm4KzPVLaS_Qj85-17" value="" style="endArrow=none;html=1;rounded=0;" parent="1" source="FLa_jBm4KzPVLaS_Qj85-1" target="FLa_jBm4KzPVLaS_Qj85-11" edge="1">
          <mxGeometry width="50" height="50" relative="1" as="geometry">
            <mxPoint x="180" y="220" as="sourcePoint" />
            <mxPoint x="230" y="170" as="targetPoint" />
          </mxGeometry>
        </mxCell>
        <mxCell id="FLa_jBm4KzPVLaS_Qj85-18" value="" style="endArrow=none;html=1;rounded=0;" parent="1" source="FLa_jBm4KzPVLaS_Qj85-1" target="FLa_jBm4KzPVLaS_Qj85-12" edge="1">
          <mxGeometry width="50" height="50" relative="1" as="geometry">
            <mxPoint x="130" y="290" as="sourcePoint" />
            <mxPoint x="180" y="240" as="targetPoint" />
          </mxGeometry>
        </mxCell>
        <mxCell id="FLa_jBm4KzPVLaS_Qj85-19" value="" style="endArrow=none;html=1;rounded=0;" parent="1" source="FLa_jBm4KzPVLaS_Qj85-13" target="FLa_jBm4KzPVLaS_Qj85-1" edge="1">
          <mxGeometry width="50" height="50" relative="1" as="geometry">
            <mxPoint x="90" y="340" as="sourcePoint" />
            <mxPoint x="140" y="290" as="targetPoint" />
          </mxGeometry>
        </mxCell>
        <mxCell id="FLa_jBm4KzPVLaS_Qj85-21" value="Mess_warden" style="shape=umlActor;verticalLabelPosition=bottom;verticalAlign=top;html=1;outlineConnect=0;" parent="1" vertex="1">
          <mxGeometry x="613" y="419" width="30" height="60" as="geometry" />
        </mxCell>
        <mxCell id="FLa_jBm4KzPVLaS_Qj85-22" value="view_feedback" style="ellipse;whiteSpace=wrap;html=1;" parent="1" vertex="1">
          <mxGeometry x="786" y="476" width="105" height="40" as="geometry" />
        </mxCell>
        <mxCell id="FLa_jBm4KzPVLaS_Qj85-26" value="" style="endArrow=none;html=1;rounded=0;" parent="1" source="FLa_jBm4KzPVLaS_Qj85-21" target="FLa_jBm4KzPVLaS_Qj85-22" edge="1">
          <mxGeometry width="50" height="50" relative="1" as="geometry">
            <mxPoint x="400" y="430" as="sourcePoint" />
            <mxPoint x="450" y="380" as="targetPoint" />
          </mxGeometry>
        </mxCell>
        <mxCell id="UXOfP4UdmPtScvCbeK_0-1" value="Student&lt;br&gt;" style="shape=umlActor;verticalLabelPosition=bottom;verticalAlign=top;html=1;outlineConnect=0;" parent="1" vertex="1">
          <mxGeometry x="1578" y="273" width="30" height="62" as="geometry" />
        </mxCell>
        <mxCell id="UXOfP4UdmPtScvCbeK_0-2" value="`" style="text;html=1;align=center;verticalAlign=middle;resizable=0;points=[];autosize=1;strokeColor=none;fillColor=none;" parent="1" vertex="1">
          <mxGeometry x="1572" y="330" width="22" height="26" as="geometry" />
        </mxCell>
        <mxCell id="UXOfP4UdmPtScvCbeK_0-3" value="View_mess_menu" style="ellipse;whiteSpace=wrap;html=1;" parent="1" vertex="1">
          <mxGeometry x="1306" y="206" width="115" height="32.5" as="geometry" />
        </mxCell>
        <mxCell id="UXOfP4UdmPtScvCbeK_0-4" value="view_bill" style="ellipse;whiteSpace=wrap;html=1;" parent="1" vertex="1">
          <mxGeometry x="1319" y="254" width="81" height="26" as="geometry" />
        </mxCell>
        <mxCell id="UXOfP4UdmPtScvCbeK_0-5" value="check_reamaining_balance" style="ellipse;whiteSpace=wrap;html=1;" parent="1" vertex="1">
          <mxGeometry x="1088.5" y="244" width="163" height="46" as="geometry" />
        </mxCell>
        <mxCell id="UXOfP4UdmPtScvCbeK_0-6" value="make_payment" style="ellipse;whiteSpace=wrap;html=1;" parent="1" vertex="1">
          <mxGeometry x="1313.5" y="300" width="110" height="30" as="geometry" />
        </mxCell>
        <mxCell id="UXOfP4UdmPtScvCbeK_0-7" value="" style="endArrow=none;html=1;rounded=0;entryX=0.644;entryY=0.949;entryDx=0;entryDy=0;entryPerimeter=0;" parent="1" source="UXOfP4UdmPtScvCbeK_0-1" target="UXOfP4UdmPtScvCbeK_0-3" edge="1">
          <mxGeometry width="50" height="50" relative="1" as="geometry">
            <mxPoint x="1371" y="333" as="sourcePoint" />
            <mxPoint x="1421" y="283" as="targetPoint" />
          </mxGeometry>
        </mxCell>
        <mxCell id="UXOfP4UdmPtScvCbeK_0-8" value="" style="endArrow=none;html=1;rounded=0;" parent="1" source="UXOfP4UdmPtScvCbeK_0-1" target="UXOfP4UdmPtScvCbeK_0-4" edge="1">
          <mxGeometry width="50" height="50" relative="1" as="geometry">
            <mxPoint x="1371" y="333" as="sourcePoint" />
            <mxPoint x="1421" y="283" as="targetPoint" />
          </mxGeometry>
        </mxCell>
        <mxCell id="UXOfP4UdmPtScvCbeK_0-9" value="" style="endArrow=none;html=1;rounded=0;" parent="1" source="UXOfP4UdmPtScvCbeK_0-1" target="UXOfP4UdmPtScvCbeK_0-6" edge="1">
          <mxGeometry width="50" height="50" relative="1" as="geometry">
            <mxPoint x="1371" y="333" as="sourcePoint" />
            <mxPoint x="1421" y="283" as="targetPoint" />
          </mxGeometry>
        </mxCell>
        <mxCell id="UXOfP4UdmPtScvCbeK_0-13" value="apply_for_rebate" style="ellipse;whiteSpace=wrap;html=1;" parent="1" vertex="1">
          <mxGeometry x="1319" y="339" width="130" height="33" as="geometry" />
        </mxCell>
        <mxCell id="UXOfP4UdmPtScvCbeK_0-14" value="give_feedback" style="ellipse;whiteSpace=wrap;html=1;" parent="1" vertex="1">
          <mxGeometry x="1269" y="592" width="131" height="36" as="geometry" />
        </mxCell>
        <mxCell id="UXOfP4UdmPtScvCbeK_0-15" value="check_rebate_status" style="ellipse;whiteSpace=wrap;html=1;" parent="1" vertex="1">
          <mxGeometry x="1100" y="335" width="140" height="41" as="geometry" />
        </mxCell>
        <mxCell id="UXOfP4UdmPtScvCbeK_0-16" value="request_special_food" style="ellipse;whiteSpace=wrap;html=1;" parent="1" vertex="1">
          <mxGeometry x="1300" y="390" width="137" height="39" as="geometry" />
        </mxCell>
        <mxCell id="UXOfP4UdmPtScvCbeK_0-17" value="check_status" style="ellipse;whiteSpace=wrap;html=1;" parent="1" vertex="1">
          <mxGeometry x="1105" y="389" width="141" height="40" as="geometry" />
        </mxCell>
        <mxCell id="UXOfP4UdmPtScvCbeK_0-18" value="&amp;lt;&amp;lt;extend&amp;gt;&amp;gt;" style="html=1;verticalAlign=bottom;labelBackgroundColor=none;endArrow=open;endFill=0;dashed=1;rounded=0;" parent="1" source="UXOfP4UdmPtScvCbeK_0-15" target="UXOfP4UdmPtScvCbeK_0-13" edge="1">
          <mxGeometry width="160" relative="1" as="geometry">
            <mxPoint x="1383" y="279" as="sourcePoint" />
            <mxPoint x="1402" y="355" as="targetPoint" />
          </mxGeometry>
        </mxCell>
        <mxCell id="UXOfP4UdmPtScvCbeK_0-19" value="" style="endArrow=none;html=1;rounded=0;" parent="1" source="UXOfP4UdmPtScvCbeK_0-13" target="UXOfP4UdmPtScvCbeK_0-1" edge="1">
          <mxGeometry width="50" height="50" relative="1" as="geometry">
            <mxPoint x="1438" y="304" as="sourcePoint" />
            <mxPoint x="1488" y="254" as="targetPoint" />
          </mxGeometry>
        </mxCell>
        <mxCell id="UXOfP4UdmPtScvCbeK_0-20" value="" style="endArrow=none;html=1;rounded=0;" parent="1" source="UXOfP4UdmPtScvCbeK_0-16" target="UXOfP4UdmPtScvCbeK_0-1" edge="1">
          <mxGeometry width="50" height="50" relative="1" as="geometry">
            <mxPoint x="1438" y="304" as="sourcePoint" />
            <mxPoint x="1488" y="254" as="targetPoint" />
          </mxGeometry>
        </mxCell>
        <mxCell id="UXOfP4UdmPtScvCbeK_0-21" value="&amp;lt;&amp;lt;extend&amp;gt;&amp;gt;" style="html=1;verticalAlign=bottom;labelBackgroundColor=none;endArrow=open;endFill=0;dashed=1;rounded=0;" parent="1" source="UXOfP4UdmPtScvCbeK_0-17" target="UXOfP4UdmPtScvCbeK_0-16" edge="1">
          <mxGeometry width="160" relative="1" as="geometry">
            <mxPoint x="1383" y="279" as="sourcePoint" />
            <mxPoint x="1543" y="279" as="targetPoint" />
          </mxGeometry>
        </mxCell>
        <mxCell id="UXOfP4UdmPtScvCbeK_0-22" value="" style="endArrow=none;html=1;rounded=0;" parent="1" source="UXOfP4UdmPtScvCbeK_0-14" target="UXOfP4UdmPtScvCbeK_0-1" edge="1">
          <mxGeometry width="50" height="50" relative="1" as="geometry">
            <mxPoint x="1438" y="304" as="sourcePoint" />
            <mxPoint x="1488" y="254" as="targetPoint" />
          </mxGeometry>
        </mxCell>
        <mxCell id="UXOfP4UdmPtScvCbeK_0-27" value="view_feedback" style="ellipse;whiteSpace=wrap;html=1;" parent="1" vertex="1">
          <mxGeometry x="778" y="268" width="105" height="40" as="geometry" />
        </mxCell>
        <mxCell id="UXOfP4UdmPtScvCbeK_0-28" value="" style="endArrow=none;html=1;rounded=0;" parent="1" source="UXOfP4UdmPtScvCbeK_0-27" target="FLa_jBm4KzPVLaS_Qj85-1" edge="1">
          <mxGeometry width="50" height="50" relative="1" as="geometry">
            <mxPoint x="1024" y="290" as="sourcePoint" />
            <mxPoint x="1074" y="240" as="targetPoint" />
          </mxGeometry>
        </mxCell>
        <mxCell id="UXOfP4UdmPtScvCbeK_0-29" value="view_menu" style="ellipse;whiteSpace=wrap;html=1;" parent="1" vertex="1">
          <mxGeometry x="788.5" y="440" width="100" height="31.5" as="geometry" />
        </mxCell>
        <mxCell id="UXOfP4UdmPtScvCbeK_0-30" value="" style="endArrow=none;html=1;rounded=0;" parent="1" source="FLa_jBm4KzPVLaS_Qj85-21" target="UXOfP4UdmPtScvCbeK_0-29" edge="1">
          <mxGeometry width="50" height="50" relative="1" as="geometry">
            <mxPoint x="1024" y="290" as="sourcePoint" />
            <mxPoint x="1074" y="240" as="targetPoint" />
          </mxGeometry>
        </mxCell>
        <mxCell id="UXOfP4UdmPtScvCbeK_0-31" value="&amp;lt;&amp;lt;extend&amp;gt;&amp;gt;" style="html=1;verticalAlign=bottom;labelBackgroundColor=none;endArrow=open;endFill=0;dashed=1;rounded=0;" parent="1" source="FLa_jBm4KzPVLaS_Qj85-10" target="FLa_jBm4KzPVLaS_Qj85-9" edge="1">
          <mxGeometry width="160" relative="1" as="geometry">
            <mxPoint x="969" y="265" as="sourcePoint" />
            <mxPoint x="1129" y="265" as="targetPoint" />
          </mxGeometry>
        </mxCell>
        <mxCell id="UXOfP4UdmPtScvCbeK_0-33" value="register" style="ellipse;whiteSpace=wrap;html=1;" parent="1" vertex="1">
          <mxGeometry x="981" y="27" width="100" height="34" as="geometry" />
        </mxCell>
        <mxCell id="UXOfP4UdmPtScvCbeK_0-34" value="de-register" style="ellipse;whiteSpace=wrap;html=1;" parent="1" vertex="1">
          <mxGeometry x="972" y="81" width="100" height="31.5" as="geometry" />
        </mxCell>
        <mxCell id="UXOfP4UdmPtScvCbeK_0-35" value="view_registrations" style="ellipse;whiteSpace=wrap;html=1;" parent="1" vertex="1">
          <mxGeometry x="766.5" y="521" width="128" height="36" as="geometry" />
        </mxCell>
        <mxCell id="UXOfP4UdmPtScvCbeK_0-36" value="" style="endArrow=none;html=1;rounded=0;" parent="1" source="FLa_jBm4KzPVLaS_Qj85-21" target="UXOfP4UdmPtScvCbeK_0-35" edge="1">
          <mxGeometry width="50" height="50" relative="1" as="geometry">
            <mxPoint x="1024" y="421" as="sourcePoint" />
            <mxPoint x="1074" y="371" as="targetPoint" />
          </mxGeometry>
        </mxCell>
        <mxCell id="UXOfP4UdmPtScvCbeK_0-37" value="&amp;lt;&amp;lt;extend&amp;gt;&amp;gt;" style="html=1;verticalAlign=bottom;labelBackgroundColor=none;endArrow=open;endFill=0;dashed=1;rounded=0;" parent="1" source="UXOfP4UdmPtScvCbeK_0-34" target="FLa_jBm4KzPVLaS_Qj85-13" edge="1">
          <mxGeometry width="160" relative="1" as="geometry">
            <mxPoint x="969" y="76" as="sourcePoint" />
            <mxPoint x="1129" y="76" as="targetPoint" />
          </mxGeometry>
        </mxCell>
        <mxCell id="UXOfP4UdmPtScvCbeK_0-38" value="&amp;lt;&amp;lt;extend&amp;gt;&amp;gt;" style="html=1;verticalAlign=bottom;labelBackgroundColor=none;endArrow=open;endFill=0;dashed=1;rounded=0;" parent="1" source="UXOfP4UdmPtScvCbeK_0-33" target="FLa_jBm4KzPVLaS_Qj85-13" edge="1">
          <mxGeometry width="160" relative="1" as="geometry">
            <mxPoint x="969" y="76" as="sourcePoint" />
            <mxPoint x="1129" y="76" as="targetPoint" />
          </mxGeometry>
        </mxCell>
        <mxCell id="fxmUygFmSHoURSVMXUyb-1" value="make/view_announcements" style="ellipse;whiteSpace=wrap;html=1;" parent="1" vertex="1">
          <mxGeometry x="722" y="564" width="181" height="43" as="geometry" />
        </mxCell>
        <mxCell id="fxmUygFmSHoURSVMXUyb-2" value="make_announcements" style="ellipse;whiteSpace=wrap;html=1;" parent="1" vertex="1">
          <mxGeometry x="742.5" y="314" width="140.5" height="42" as="geometry" />
        </mxCell>
        <mxCell id="fxmUygFmSHoURSVMXUyb-3" value="view_announcement" style="ellipse;whiteSpace=wrap;html=1;" parent="1" vertex="1">
          <mxGeometry x="1393" y="530" width="136.5" height="49" as="geometry" />
        </mxCell>
        <mxCell id="fxmUygFmSHoURSVMXUyb-4" value="" style="endArrow=none;html=1;rounded=0;" parent="1" source="fxmUygFmSHoURSVMXUyb-3" target="UXOfP4UdmPtScvCbeK_0-1" edge="1">
          <mxGeometry width="50" height="50" relative="1" as="geometry">
            <mxPoint x="1130" y="420" as="sourcePoint" />
            <mxPoint x="1180" y="370" as="targetPoint" />
          </mxGeometry>
        </mxCell>
        <mxCell id="fxmUygFmSHoURSVMXUyb-5" value="attach_documents" style="ellipse;whiteSpace=wrap;html=1;" parent="1" vertex="1">
          <mxGeometry x="954" y="289" width="136" height="44" as="geometry" />
        </mxCell>
        <mxCell id="7yMZXxlGVCUw6Mam1xA8-1" value="" style="endArrow=none;html=1;rounded=0;" parent="1" source="fxmUygFmSHoURSVMXUyb-1" target="FLa_jBm4KzPVLaS_Qj85-21" edge="1">
          <mxGeometry width="50" height="50" relative="1" as="geometry">
            <mxPoint x="1070" y="477" as="sourcePoint" />
            <mxPoint x="1120" y="427" as="targetPoint" />
          </mxGeometry>
        </mxCell>
        <mxCell id="7yMZXxlGVCUw6Mam1xA8-2" value="&amp;lt;&amp;lt;extend&amp;gt;&amp;gt;" style="html=1;verticalAlign=bottom;labelBackgroundColor=none;endArrow=open;endFill=0;dashed=1;rounded=0;" parent="1" source="fxmUygFmSHoURSVMXUyb-5" target="fxmUygFmSHoURSVMXUyb-2" edge="1">
          <mxGeometry width="160" relative="1" as="geometry">
            <mxPoint x="1015" y="313" as="sourcePoint" />
            <mxPoint x="975" y="392" as="targetPoint" />
          </mxGeometry>
        </mxCell>
        <mxCell id="7yMZXxlGVCUw6Mam1xA8-3" value="" style="endArrow=none;html=1;rounded=0;" parent="1" source="fxmUygFmSHoURSVMXUyb-2" target="FLa_jBm4KzPVLaS_Qj85-1" edge="1">
          <mxGeometry width="50" height="50" relative="1" as="geometry">
            <mxPoint x="1070" y="338" as="sourcePoint" />
            <mxPoint x="1120" y="288" as="targetPoint" />
          </mxGeometry>
        </mxCell>
        <mxCell id="W8kIC-QNaFMKsnKbZQ5Z-2" value="request_for_registration&lt;br&gt;/de-registration" style="ellipse;whiteSpace=wrap;html=1;" parent="1" vertex="1">
          <mxGeometry x="1183" y="530" width="178" height="42" as="geometry" />
        </mxCell>
        <mxCell id="W8kIC-QNaFMKsnKbZQ5Z-3" value="" style="endArrow=none;html=1;rounded=0;" parent="1" source="W8kIC-QNaFMKsnKbZQ5Z-2" target="UXOfP4UdmPtScvCbeK_0-1" edge="1">
          <mxGeometry width="50" height="50" relative="1" as="geometry">
            <mxPoint x="1042" y="326" as="sourcePoint" />
            <mxPoint x="1092" y="276" as="targetPoint" />
          </mxGeometry>
        </mxCell>
        <mxCell id="W8kIC-QNaFMKsnKbZQ5Z-4" value="manage_bill" style="ellipse;whiteSpace=wrap;html=1;" parent="1" vertex="1">
          <mxGeometry x="716" y="368" width="81" height="26" as="geometry" />
        </mxCell>
        <mxCell id="W8kIC-QNaFMKsnKbZQ5Z-5" value="" style="endArrow=none;html=1;rounded=0;" parent="1" source="W8kIC-QNaFMKsnKbZQ5Z-4" target="FLa_jBm4KzPVLaS_Qj85-1" edge="1">
          <mxGeometry width="50" height="50" relative="1" as="geometry">
            <mxPoint x="1042" y="326" as="sourcePoint" />
            <mxPoint x="1092" y="276" as="targetPoint" />
          </mxGeometry>
        </mxCell>
        <mxCell id="W8kIC-QNaFMKsnKbZQ5Z-6" value="&amp;lt;&amp;lt;extend&amp;gt;&amp;gt;" style="html=1;verticalAlign=bottom;labelBackgroundColor=none;endArrow=open;endFill=0;dashed=1;rounded=0;" parent="1" source="UXOfP4UdmPtScvCbeK_0-5" target="UXOfP4UdmPtScvCbeK_0-4" edge="1">
          <mxGeometry width="160" relative="1" as="geometry">
            <mxPoint x="987" y="301" as="sourcePoint" />
            <mxPoint x="1147" y="301" as="targetPoint" />
          </mxGeometry>
        </mxCell>
        <mxCell id="W8kIC-QNaFMKsnKbZQ5Z-7" value="search/generate_report" style="ellipse;whiteSpace=wrap;html=1;" parent="1" vertex="1">
          <mxGeometry x="664" y="612" width="136" height="44" as="geometry" />
        </mxCell>
        <mxCell id="W8kIC-QNaFMKsnKbZQ5Z-8" value="" style="endArrow=none;html=1;rounded=0;" parent="1" source="W8kIC-QNaFMKsnKbZQ5Z-7" target="FLa_jBm4KzPVLaS_Qj85-21" edge="1">
          <mxGeometry width="50" height="50" relative="1" as="geometry">
            <mxPoint x="1022" y="389" as="sourcePoint" />
            <mxPoint x="1072" y="339" as="targetPoint" />
          </mxGeometry>
        </mxCell>
        <mxCell id="Y1GTQClpfxI9LeytzFcy-1" value="respond_to_vacation&lt;br&gt;_food_request" style="ellipse;whiteSpace=wrap;html=1;" parent="1" vertex="1">
          <mxGeometry x="1283" y="149" width="143.5" height="42" as="geometry" />
        </mxCell>
        <mxCell id="Y1GTQClpfxI9LeytzFcy-3" value="" style="endArrow=none;html=1;rounded=0;" parent="1" source="UXOfP4UdmPtScvCbeK_0-1" target="Y1GTQClpfxI9LeytzFcy-1" edge="1">
          <mxGeometry width="50" height="50" relative="1" as="geometry">
            <mxPoint x="1049" y="368" as="sourcePoint" />
            <mxPoint x="1099" y="318" as="targetPoint" />
          </mxGeometry>
        </mxCell>
      </root>
    </mxGraphModel>
  </diagram>
</mxfile>
